<?xml version="1.0" encoding="UTF-8" standalone="no"?>
<!-- Created with Inkscape (http://www.inkscape.org/) -->

<svg
   width="360"
   height="60"
   viewBox="0 0 2388 1668"
   version="1.1"
   id="svg1"
   xml:space="preserve"
   xmlns="http://www.w3.org/2000/svg"
   xmlns:svg="http://www.w3.org/2000/svg"><defs
     id="defs1" /><g
     id="layer1"><path
       d="M 3601.7949,-47.944141 A 460.99228,460.99228 0 0 1 3147.2215,380.83828 460.99228,460.99228 0 0 1 2692.648,-47.944141 h -66.025 A 460.99228,460.99228 0 0 1 2171.2895,384.69336 460.99228,460.99228 0 0 1 1715.9559,-47.944141 h -61.1383 A 460.99228,460.99228 0 0 1 1198.7781,388.05977 460.99228,460.99228 0 0 1 742.73867,-47.944141 h -65.9707 A 460.99228,460.99228 0 0 1 221.70586,383.17305 460.99228,460.99228 0 0 1 -233.30195,-47.944141 h -60.16094 A 460.99228,460.99228 0 0 1 -749.12227,386.43086 460.99228,460.99228 0 0 1 -1204.8359,-47.944141 h -2672.275 V 1773.6617 H 6333.4707 V -47.944141 Z"
       style="opacity:1;fill:#ffffff;stroke-width:27.8"
       id="path5" /></g></svg>
