<?xml version="1.0" encoding="UTF-8" standalone="no"?>
<!-- Created with Inkscape (http://www.inkscape.org/) -->

<svg
   width="980"
   height="60"
   viewBox="0 0 2388 1668"
   version="1.1"
   id="svg1"
   xml:space="preserve"
   xmlns="http://www.w3.org/2000/svg"
   xmlns:svg="http://www.w3.org/2000/svg"><defs
     id="defs1" /><g
     id="layer1"><path
       d="M -1349.7,0 A 806.73651,806.73651 0 0 1 -2125.1137,689.8418 806.73651,806.73651 0 0 1 -2900.5273,0 H -12785.762 V 1882.2555 H 15063.594 V 0 H 5306.9883 A 806.73651,806.73651 0 0 1 4529.8371,696.46602 806.73651,806.73651 0 0 1 3752.6316,0 H 3637.6309 A 806.73651,806.73651 0 0 1 2860.3168,697.17188 806.73651,806.73651 0 0 1 2082.9484,0 H 1963.441 A 806.73651,806.73651 0 0 1 1187.3215,692.44805 806.73651,806.73651 0 0 1 411.20195,0 H 311.24141 A 806.73651,806.73651 0 0 1 -464.17227,689.8418 806.73651,806.73651 0 0 1 -1239.5859,0 Z"
       style="opacity:1;fill:#ffffff;stroke-width:29.5115"
       id="path4" /></g></svg>
